<svg xmlns="http://www.w3.org/2000/svg" width="202" height="152" fill="none"><path fill="#fff" d="M157.643 57.093c-2.31 0-4.4-.595-6.269-1.784-1.834-1.19-3.278-2.837-4.331-4.944-1.054-2.14-1.58-4.57-1.58-7.288s.526-5.13 1.58-7.237c1.053-2.14 2.497-3.822 4.331-5.045 1.869-1.223 3.976-1.835 6.32-1.835 1.223 0 2.395.187 3.517.56 1.155.375 2.174.884 3.057 1.53.918.645 1.665 1.376 2.243 2.191.577.816.934 1.682 1.07 2.6l-1.988.458V18.87h8.206v37.714h-7.645l-.459-6.116 1.631.306c-.068.815-.373 1.614-.917 2.395-.544.748-1.274 1.427-2.192 2.039a11.603 11.603 0 0 1-3.006 1.376c-1.122.34-2.311.51-3.568.51Zm2.039-6.779c1.257 0 2.327-.289 3.21-.866.918-.612 1.631-1.461 2.141-2.548.51-1.088.764-2.362.764-3.823 0-1.495-.254-2.786-.764-3.873-.51-1.087-1.223-1.92-2.141-2.497-.883-.612-1.953-.918-3.21-.918-1.224 0-2.294.306-3.211.918-.883.577-1.58 1.41-2.09 2.497-.509 1.087-.764 2.378-.764 3.873 0 1.461.255 2.735.764 3.823.51 1.087 1.207 1.936 2.09 2.548.917.577 1.987.866 3.211.866ZM39.009 93.085c-4.041 2.118-7.828 3.21-11.358 3.277-3.513.008-6.942-.77-10.288-2.336l2.489-9.996c3.268 1.606 6.108 2.347 8.519 2.223 2.411-.125 4.647-.726 6.706-1.805 1.05-.55 1.91-1.175 2.584-1.874.712-.72 1.17-1.455 1.371-2.205a3.086 3.086 0 0 0-.25-2.32 3.131 3.131 0 0 0-1.291-1.33c-.516-.323-1.119-.528-1.807-.613a10.442 10.442 0 0 0-2.237-.016 12.86 12.86 0 0 0-2.612.403c-.88.213-1.768.455-2.665.727-2.498.715-4.776 1.14-6.834 1.278-2.04.078-3.897-.112-5.574-.571-1.658-.518-3.115-1.314-4.372-2.39-1.277-1.113-2.374-2.544-3.29-4.293-1.303-2.487-1.744-5.03-1.322-7.628.46-2.618 1.581-5.063 3.363-7.334 1.782-2.27 4.033-4.119 6.753-5.544 3.963-2.077 7.486-3.105 10.567-3.085 3.1-.04 5.949.671 8.547 2.133l-3.033 9.241c-2.019-.923-4.01-1.366-5.97-1.329a11.67 11.67 0 0 0-5.391 1.339c-1.127.59-2.047 1.246-2.76 1.965-.711.72-1.158 1.475-1.34 2.263-.162.73-.05 1.463.337 2.201a3.277 3.277 0 0 0 1.41 1.416c.633.262 1.371.395 2.215.399.844.004 1.765-.083 2.762-.259a30.66 30.66 0 0 0 2.987-.822c2.36-.692 4.58-1.136 6.656-1.333 2.115-.217 4.07-.126 5.862.271 1.773.36 3.356 1.065 4.75 2.118 1.412.993 2.587 2.384 3.523 4.171 1.466 2.798 2.038 5.544 1.717 8.239-.322 2.694-1.412 5.197-3.272 7.508-1.86 2.312-4.344 4.282-7.452 5.911ZM95.366 85.936V48.223h8.205v37.713h-8.205ZM124.769 85.936V69.322c0-1.393-.39-2.413-1.172-3.058-.747-.68-1.8-1.02-3.159-1.02-1.326 0-2.515.255-3.568.765-1.019.476-2.005 1.274-2.956 2.395l-4.892-4.74a18.354 18.354 0 0 1 5.606-3.924c2.106-.95 4.4-1.427 6.88-1.427 2.276 0 4.247.34 5.912 1.02 1.664.68 2.956 1.716 3.873 3.109.917 1.393 1.376 3.16 1.376 5.3v18.194h-7.9Zm-7.033.51c-1.698 0-3.244-.34-4.637-1.02-1.359-.68-2.447-1.613-3.262-2.803-.781-1.223-1.172-2.65-1.172-4.28 0-1.394.255-2.617.764-3.67a6.612 6.612 0 0 1 2.243-2.6c1.019-.713 2.276-1.24 3.771-1.579 1.529-.374 3.296-.56 5.3-.56h8.206l-.459 5.147h-7.543c-.713 0-1.342.068-1.886.204-.543.102-1.002.288-1.376.56a2.644 2.644 0 0 0-.866.867c-.17.34-.255.747-.255 1.223 0 .51.136.951.408 1.325.272.373.629.662 1.07.866.476.204 1.019.306 1.631.306.883 0 1.716-.136 2.497-.408a6.76 6.76 0 0 0 2.141-1.274 6.247 6.247 0 0 0 1.529-1.885l1.427 3.669a13.218 13.218 0 0 1-2.599 3.058 11.872 11.872 0 0 1-3.262 2.09 8.994 8.994 0 0 1-3.67.764ZM138.836 88.243l3.326-33.728 8.166.805-3.326 33.728-8.166-.805Zm-2.817-20.25.705-7.152 18.107 1.786-.706 7.15-18.106-1.785ZM167.245 89.513c-2.97-.344-5.5-1.235-7.591-2.675-2.057-1.435-3.574-3.252-4.551-5.452-.939-2.229-1.254-4.677-.945-7.343.242-2.093.801-3.96 1.675-5.604.878-1.676 1.997-3.069 3.356-4.177a13.18 13.18 0 0 1 4.688-2.382c1.77-.513 3.65-.655 5.642-.424 1.89.219 3.572.756 5.046 1.61a12.279 12.279 0 0 1 3.722 3.304c1.007 1.348 1.719 2.884 2.135 4.608.416 1.724.493 3.563.233 5.517l-.308 2.222-21.365-2.474-.681-4.747 15.947 1.846-.966.811.117-1.012c.03-.852-.156-1.609-.558-2.27a4.622 4.622 0 0 0-1.596-1.725c-.666-.453-1.454-.732-2.366-.838-1.35-.156-2.528-.019-3.536.412-.97.4-1.748 1.063-2.334 1.987-.585.924-.962 2.112-1.13 3.563-.168 1.451-.013 2.769.466 3.953.512 1.188 1.323 2.154 2.434 2.898 1.145.749 2.544 1.218 4.198 1.41 1.114.129 2.146.077 3.096-.155.951-.232 1.996-.692 3.136-1.381l3.176 5.806a18.117 18.117 0 0 1-3.6 1.84 16.212 16.212 0 0 1-3.791.844c-1.25.163-2.5.172-3.749.028ZM66.854 90.037l-4.368-35.406 15.326-1.89c2.226-.275 4.278-.015 6.156.78a11.213 11.213 0 0 1 4.659 3.636c1.224 1.595 1.973 3.505 2.248 5.731.278 2.26.024 4.362-.763 6.307-.787 1.946-1.993 3.55-3.617 4.812-1.625 1.261-3.55 2.03-5.775 2.304l-6.677.823 1.46 11.836-8.649 1.067ZM73 69.51l5.614-.692c.742-.092 1.379-.342 1.91-.75a4.255 4.255 0 0 0 1.28-1.698c.292-.686.388-1.434.288-2.243-.104-.844-.379-1.546-.825-2.107a3.968 3.968 0 0 0-1.641-1.235c-.615-.267-1.293-.354-2.035-.263l-5.615.693L73 69.509Z"/><path fill="#fff" d="m82.24 52.986 1.716-28.334c.107-1.764.576-3.318 1.406-4.664a8.993 8.993 0 0 1 3.462-3.21c1.442-.764 3.079-1.09 4.91-.98 1.255.076 2.413.35 3.473.823a9.599 9.599 0 0 1 2.804 1.753l-2.7 5.81a8.108 8.108 0 0 0-1.238-.637 3.574 3.574 0 0 0-1.107-.27c-.61-.038-1.125.033-1.545.212a2 2 0 0 0-.97.86c-.195.397-.31.9-.347 1.51L90.43 53.484l-4.12-.25a26348.014 26348.014 0 0 1-4.07-.246Zm-2.79-19.672.412-6.817 17.703 1.072-.413 6.817-17.703-1.073Zm22.884 20.89 1.716-28.335c.107-1.764.576-3.318 1.406-4.663a8.997 8.997 0 0 1 3.462-3.212c1.442-.763 3.079-1.09 4.91-.979 1.255.076 2.413.35 3.473.824a9.59 9.59 0 0 1 2.804 1.752l-2.7 5.81a8.127 8.127 0 0 0-1.238-.636 3.577 3.577 0 0 0-1.107-.272c-.61-.037-1.125.034-1.545.213a2 2 0 0 0-.971.86c-.194.397-.31.9-.347 1.511L110.524 54.7l-4.12-.25-2.391-.145-1.679-.101Zm-2.79-19.673.412-6.817 17.703 1.073-.413 6.816-17.703-1.072ZM132.546 56.545c-2.984-.181-5.56-.933-7.726-2.255-2.133-1.32-3.747-3.053-4.842-5.195-1.06-2.175-1.508-4.602-1.346-7.28.127-2.104.582-4 1.365-5.688.786-1.722 1.827-3.174 3.124-4.355a13.162 13.162 0 0 1 4.55-2.634c1.739-.61 3.609-.854 5.61-.733 1.899.115 3.608.56 5.127 1.332a12.281 12.281 0 0 1 3.897 3.096c1.079 1.29 1.874 2.785 2.383 4.484.51 1.699.688 3.53.535 5.495l-.186 2.236-21.468-1.3-.94-4.704 16.024.97-.92.864.062-1.017c-.017-.852-.244-1.598-.682-2.237a4.61 4.61 0 0 0-1.688-1.634c-.689-.416-1.492-.652-2.408-.708-1.356-.082-2.526.12-3.508.605-.947.453-1.687 1.157-2.222 2.112-.534.954-.845 2.16-.934 3.62-.088 1.457.139 2.765.682 3.92.576 1.159 1.44 2.08 2.59 2.762 1.184.684 2.606 1.077 4.268 1.177 1.119.068 2.147-.04 3.083-.324.937-.283 1.955-.8 3.056-1.55l3.488 5.623a18.093 18.093 0 0 1-3.493 2.035 16.21 16.21 0 0 1-3.74 1.05 15.277 15.277 0 0 1-3.741.233ZM64.644 53.775c-1.95.284-3.692.108-5.226-.526-1.54-.669-2.811-1.737-3.815-3.204-.974-1.507-1.626-3.386-1.954-5.639l-2.41-16.541 8.12-1.183 2.233 15.332c.24 1.647.815 2.885 1.726 3.714.939.79 2.115 1.082 3.527.877.706-.103 1.33-.297 1.872-.582a4.467 4.467 0 0 0 1.323-1.171 4.64 4.64 0 0 0 .788-1.66c.152-.606.18-1.245.081-1.917l-2.32-15.937 8.119-1.183 3.9 26.78-7.615 1.109-1.103-5.453 1.374-.818c-.188 1.298-.697 2.522-1.525 3.672a10.17 10.17 0 0 1-3.034 2.863 10.469 10.469 0 0 1-4.06 1.467ZM46.268 65.48l-11.83-31.759 7.689-2.864 11.83 31.76-7.69 2.864ZM34.84 48.528l-2.508-6.734 17.05-6.35 2.508 6.733-17.05 6.351ZM33.628 102.26C20.723 100.499.836 96.173.836 96.173l2.63 3.787s18.422 4.261 30.388 6.061c52.312 7.868 84.367 6.448 135.214-8.146 11.197-3.214 28.244-9.593 28.244-9.593l2.499-4.097s-18.703 6.639-30.969 9.93c-51.094 13.706-82.8 15.299-135.214 8.145Z"/><path fill="#fff" d="M70.617 112.547c-6.39-.872-15.837-3.017-15.837-3.017l.788 3.017s9.123 2.11 15.049 3.001c25.905 3.897 41.779 3.193 66.958-4.034 5.545-1.591 13.987-4.75 13.987-4.75l1.173-3.741s-9.085 3.85-15.16 5.48c-25.301 6.787-41.002 7.586-66.958 4.044ZM35.011 135.975c-.721.024-1.336-.08-1.844-.312a3.782 3.782 0 0 1-1.307-1.039l1.04-1.254c.357.453.71.753 1.063.901.352.147.712.215 1.08.202.187-.006.353-.036.497-.09a.802.802 0 0 0 .347-.22.488.488 0 0 0 .123-.348.494.494 0 0 0-.093-.278.695.695 0 0 0-.215-.212 1.644 1.644 0 0 0-.318-.155 2.02 2.02 0 0 0-.4-.122 7.864 7.864 0 0 0-.43-.079 5.176 5.176 0 0 1-1.062-.287 2.902 2.902 0 0 1-.756-.463 1.943 1.943 0 0 1-.46-.641 2.31 2.31 0 0 1-.174-.838 1.89 1.89 0 0 1 .335-1.178c.245-.342.572-.614.982-.815.41-.202.858-.311 1.343-.327.708-.025 1.28.07 1.719.284a2.64 2.64 0 0 1 1.072.891l-1.066 1.109a2.17 2.17 0 0 0-.76-.599 1.842 1.842 0 0 0-.86-.178 1.72 1.72 0 0 0-.53.091.747.747 0 0 0-.345.23.499.499 0 0 0-.103.337.52.52 0 0 0 .104.299c.072.081.168.15.288.209.12.058.257.109.412.152.154.037.314.066.482.088.384.063.73.152 1.04.266.317.114.59.261.818.441.228.173.405.382.532.628.133.238.205.517.216.836.017.5-.09.93-.32 1.293a2.31 2.31 0 0 1-.982.846c-.423.202-.913.312-1.468.332Zm4.469-.258-.238-6.92 1.676-.057.237 6.919-1.675.058Zm-1.118-4.025-.05-1.467 3.715-.128.05 1.468-3.715.127Zm6.703 3.937c-.402.014-.752-.061-1.05-.224a1.803 1.803 0 0 1-.702-.736c-.164-.328-.254-.724-.27-1.189l-.117-3.413 1.675-.058.109 3.163c.012.34.1.605.267.794.173.181.405.267.696.257.146-.005.277-.03.394-.076a.92.92 0 0 0 .492-.528.996.996 0 0 0 .06-.387l-.113-3.288 1.675-.058.19 5.526-1.572.054-.1-1.132.297-.136c-.068.26-.199.497-.393.712a2.134 2.134 0 0 1-1.538.719Zm5.154-.281-.2-5.796a2.01 2.01 0 0 1 .196-.975c.15-.297.364-.537.642-.72.279-.184.605-.282.98-.295a2.04 2.04 0 0 1 .722.101c.225.068.426.169.605.302l-.437 1.234a1.621 1.621 0 0 0-.264-.106.707.707 0 0 0-.23-.033.685.685 0 0 0-.31.073.407.407 0 0 0-.182.193.82.82 0 0 0-.041.314l.194 5.651-.843.029-.489.016-.343.012Zm-.949-3.947-.047-1.394 3.62-.125.049 1.395-3.622.124Zm5.059 3.806-.2-5.796a2.018 2.018 0 0 1 .197-.976c.15-.296.363-.536.642-.72.278-.183.605-.281.98-.294a2.04 2.04 0 0 1 .722.101c.224.068.426.169.604.302l-.437 1.234a1.62 1.62 0 0 0-.264-.106.738.738 0 0 0-.54.04.408.408 0 0 0-.181.193.818.818 0 0 0-.042.314l.194 5.651-.843.029-.489.016-.343.012Zm-.948-3.947-.048-1.394 3.621-.125.048 1.395-3.621.124Zm8.818 6.073 1.157-2.998.051.873-2.875-5.746 1.894-.065 1.261 2.749a4.076 4.076 0 0 1 .334.905l-.235.144c.038-.106.078-.239.122-.4l.159-.516.92-2.97 1.903-.065-2.151 5.606-.865 2.426-1.675.057Zm8.166-2.572a3.187 3.187 0 0 1-1.542-.312 2.78 2.78 0 0 1-1.097-.983 2.867 2.867 0 0 1-.436-1.465c-.019-.562.093-1.062.334-1.501a2.68 2.68 0 0 1 1.027-1.056 3.102 3.102 0 0 1 1.517-.427c.575-.02 1.09.087 1.542.322.46.227.825.555 1.097.983.271.422.416.913.436 1.475a2.865 2.865 0 0 1-.335 1.491 2.777 2.777 0 0 1-1.026 1.056c-.436.258-.941.397-1.517.417Zm-.05-1.436a1.16 1.16 0 0 0 .65-.21c.19-.132.337-.307.44-.526.104-.218.147-.463.131-.733a1.527 1.527 0 0 0-.182-.744 1.214 1.214 0 0 0-.475-.494 1.147 1.147 0 0 0-.662-.165c-.243.008-.46.078-.65.21-.19.131-.336.306-.44.525-.103.219-.15.471-.14.755.009.271.073.512.191.723.119.211.277.376.476.494.198.118.419.173.662.165Zm5.998 1.232c-.402.013-.752-.061-1.05-.225a1.803 1.803 0 0 1-.702-.736c-.164-.328-.254-.724-.27-1.189l-.117-3.413 1.676-.058.108 3.164c.012.34.1.604.267.793.173.181.405.267.696.257.146-.005.277-.03.394-.076a.905.905 0 0 0 .295-.208.95.95 0 0 0 .257-.707l-.113-3.288 1.675-.058.19 5.526-1.571.054-.102-1.132.298-.135a1.69 1.69 0 0 1-.393.711 2.072 2.072 0 0 1-.68.513 2.152 2.152 0 0 1-.858.207Zm4.8-.269-.19-5.526 1.592-.055.135 1.798-.324-.343c.08-.294.21-.563.389-.805.179-.242.394-.437.646-.585a1.798 1.798 0 0 1 1.16-.217c.111.01.21.031.294.063l-.385 1.857a1.161 1.161 0 0 0-.315-.093 1.478 1.478 0 0 0-.397-.038 1.084 1.084 0 0 0-.75.327 1.183 1.183 0 0 0-.207.351 1.294 1.294 0 0 0-.057.45l.095 2.758-1.686.058Zm8.147 2.012-.268-7.815 1.592-.054.115 1.214-.326-.082c.034-.224.141-.429.322-.615.188-.194.423-.352.703-.473.28-.127.58-.197.9-.207.471-.017.895.09 1.271.32.376.231.676.561.899.991.23.422.354.915.373 1.477a3.24 3.24 0 0 1-.272 1.478 2.519 2.519 0 0 1-.839 1.05c-.36.255-.775.391-1.246.407a2.343 2.343 0 0 1-.912-.146 2.314 2.314 0 0 1-.734-.454 1.343 1.343 0 0 1-.397-.622l.38-.169.125 3.642-1.686.058Zm2.769-3.71c.25-.009.463-.075.64-.199.182-.125.319-.296.409-.514.096-.226.14-.481.13-.765a1.731 1.731 0 0 0-.183-.755 1.115 1.115 0 0 0-.444-.495 1.1 1.1 0 0 0-.651-.165 1.187 1.187 0 0 0-1.08.725c-.096.218-.14.477-.13.775.01.284.071.536.183.754.111.212.263.373.454.485.191.111.415.163.672.154Zm4.002 1.186-.265-7.701 1.676-.057.264 7.7-1.675.058Zm6.003-.207-.116-3.392c-.01-.284-.097-.49-.261-.616-.157-.134-.375-.196-.652-.186a1.65 1.65 0 0 0-.723.181c-.205.104-.4.274-.587.51l-1.032-.934a3.757 3.757 0 0 1 1.117-.84 3.382 3.382 0 0 1 1.395-.34c.465-.016.869.04 1.214.167s.616.33.813.608c.197.278.303.635.318 1.072l.127 3.715-1.613.055Zm-1.432.154a2.13 2.13 0 0 1-.954-.176 1.726 1.726 0 0 1-.686-.549 1.591 1.591 0 0 1-.27-.866c-.009-.285.035-.536.131-.755.097-.218.244-.4.44-.546.203-.153.456-.269.759-.349a4.58 4.58 0 0 1 1.078-.152l1.676-.057-.058 1.054-1.54.053a1.576 1.576 0 0 0-.384.055.684.684 0 0 0-.277.124.55.55 0 0 0-.171.183.559.559 0 0 0-.043.251.451.451 0 0 0 .092.268.552.552 0 0 0 .225.169c.099.039.21.056.335.051a1.53 1.53 0 0 0 .507-.1c.165-.069.307-.16.428-.276.128-.115.228-.247.299-.395l.317.739a2.664 2.664 0 0 1-.509.642 2.401 2.401 0 0 1-.651.45c-.232.112-.48.173-.744.182Zm4.839-.271-.237-6.919 1.675-.058.238 6.92-1.676.057Zm-1.117-4.024-.051-1.467 3.715-.128.051 1.467-3.715.128Zm7.401 3.913c-.61.021-1.149-.082-1.615-.309a2.662 2.662 0 0 1-1.085-.963 2.934 2.934 0 0 1-.415-1.455c-.014-.43.041-.824.168-1.183.126-.365.31-.681.551-.946.248-.265.539-.473.875-.624a2.905 2.905 0 0 1 1.126-.257 2.64 2.64 0 0 1 1.069.171c.324.128.608.313.852.555.245.241.435.53.572.865.136.336.208.705.215 1.108l.005.458-4.391.151-.282-.939 3.278-.112-.171.193-.007-.208a.825.825 0 0 0-.182-.442.95.95 0 0 0-.375-.299 1.056 1.056 0 0 0-.503-.098c-.278.01-.512.074-.702.191a1.012 1.012 0 0 0-.411.473c-.09.204-.13.456-.12.754.01.298.082.56.214.784.14.225.333.395.581.512.254.116.551.168.89.157.229-.008.436-.05.621-.126s.382-.2.592-.374l.818 1.076a3.7 3.7 0 0 1-.671.481 3.281 3.281 0 0 1-.74.286c-.248.071-.5.111-.757.12Zm3.689 1.863-.51-.576c.28-.142.5-.312.66-.512.167-.201.248-.367.243-.498a.458.458 0 0 0-.059-.207.882.882 0 0 0-.237-.242 1.16 1.16 0 0 1-.345-.332.889.889 0 0 1-.097-.382c-.007-.222.067-.394.222-.518.155-.13.355-.2.597-.208a.944.944 0 0 1 .558.148c.17.105.304.257.401.455.103.191.16.418.169.681.008.229-.026.456-.102.681a2.4 2.4 0 0 1-.846 1.154 2.28 2.28 0 0 1-.654.356Zm-24.99 7.769-2.001-5.463 1.758-.06 1.143 3.534-.23-.034 1.049-2.807.978-.034 1.313 2.737-.25.029.898-3.594 1.76-.06-1.695 5.59-1.228.042-1.308-2.913.136.016-1.086 2.975-1.238.042Zm10.263-.352-.117-3.392c-.009-.285-.096-.49-.26-.616-.158-.134-.375-.196-.653-.186a1.64 1.64 0 0 0-.723.181c-.205.104-.4.274-.587.509l-1.032-.933a3.76 3.76 0 0 1 1.117-.841 3.369 3.369 0 0 1 1.395-.339c.465-.016.87.039 1.214.167.345.127.616.329.813.607.197.278.303.636.318 1.073l.128 3.715-1.613.055Zm-1.433.153a2.13 2.13 0 0 1-.954-.175 1.729 1.729 0 0 1-.685-.55 1.589 1.589 0 0 1-.27-.866c-.01-.284.034-.536.13-.754.097-.219.244-.401.44-.547.203-.152.456-.269.76-.349.309-.087.668-.137 1.078-.151l1.675-.058-.058 1.054-1.54.053a1.625 1.625 0 0 0-.383.055.693.693 0 0 0-.277.124.535.535 0 0 0-.171.183.557.557 0 0 0-.044.252.45.45 0 0 0 .093.268c.058.074.133.13.224.169.099.038.21.055.336.051.18-.006.349-.04.507-.101.164-.068.307-.16.428-.275.128-.116.227-.247.299-.396l.317.739a2.72 2.72 0 0 1-.509.643 2.454 2.454 0 0 1-.652.45c-.232.112-.48.172-.744.181Zm4.84-.27-.238-6.92 1.676-.057.237 6.92-1.675.057Zm-1.118-4.025-.05-1.467 3.715-.127.05 1.467-3.715.127Zm7.193 3.921a2.832 2.832 0 0 1-1.459-.325 2.72 2.72 0 0 1-1.034-.986 2.959 2.959 0 0 1-.414-1.455c-.019-.554.085-1.051.313-1.49.228-.445.549-.8.964-1.064a2.818 2.818 0 0 1 1.433-.424c.493-.017.947.057 1.362.224.423.159.757.387 1.003.684l-.867 1.134a1.669 1.669 0 0 0-.789-.525 1.513 1.513 0 0 0-.503-.066 1.3 1.3 0 0 0-.69.211 1.207 1.207 0 0 0-.452.516c-.103.219-.15.463-.141.734.009.264.073.501.191.712.125.204.291.365.496.483.205.118.433.173.683.164.18-.006.346-.036.497-.09.151-.053.287-.127.409-.222a1.99 1.99 0 0 0 .353-.335l.943 1.072c-.226.299-.547.547-.964.741-.417.188-.862.29-1.334.307Zm3.243-.216-.265-7.7 1.655-.057.113 3.299-.339.136c.068-.252.195-.482.383-.69.194-.215.427-.39.701-.524.273-.135.562-.207.867-.217.416-.015.77.06 1.06.224a1.5 1.5 0 0 1 .661.737c.157.328.244.739.261 1.231l.116 3.382-1.675.058-.112-3.257a1.41 1.41 0 0 0-.113-.549.647.647 0 0 0-.292-.313.878.878 0 0 0-.471-.077c-.146.005-.28.034-.404.087a.902.902 0 0 0-.524.507.92.92 0 0 0-.06.377l.113 3.289-.843.029-.489.016-.343.012Zm10.032-.344-.19-5.526 1.675-.057.19 5.525-1.675.058Zm.615-6.647c-.319.011-.571-.054-.756-.193-.179-.147-.273-.359-.283-.636a.798.798 0 0 1 .25-.634c.174-.166.418-.254.73-.265.305-.01.547.058.726.205.185.139.283.348.292.625a.794.794 0 0 1-.249.634c-.168.165-.404.253-.71.264Zm3.092 6.519-.237-6.919 1.675-.058.238 6.92-1.676.057Zm-1.117-4.024-.051-1.467 3.715-.128.051 1.467-3.715.128Zm8.597 3.768-.238-6.92 1.675-.058.238 6.92-1.675.058Zm-1.118-4.025-.05-1.467 3.715-.128.05 1.467-3.715.128Zm6.703 3.937c-.402.014-.752-.061-1.05-.224a1.81 1.81 0 0 1-.702-.737c-.164-.327-.254-.724-.27-1.188l-.117-3.414 1.675-.057.109 3.163c.011.34.1.605.267.793.173.182.405.268.696.258.146-.005.277-.031.393-.076a.908.908 0 0 0 .493-.528c.044-.119.064-.249.059-.387l-.113-3.289 1.676-.057.189 5.526-1.571.053-.101-1.132.297-.135a1.686 1.686 0 0 1-.392.712 2.14 2.14 0 0 1-1.538.719Zm4.789-.268-.19-5.526 1.593-.055.086.998-.228.028c.07-.183.168-.346.295-.489.127-.143.269-.263.426-.359.163-.102.334-.181.512-.236a2.047 2.047 0 0 1 1.282-.002c.225.075.42.204.586.386.173.182.313.427.421.736l-.251-.033.068-.149c.091-.169.204-.323.338-.459a2.37 2.37 0 0 1 .99-.607 2.16 2.16 0 0 1 .539-.092c.437-.015.804.06 1.101.223.298.163.525.413.682.748.157.328.244.738.261 1.23l.116 3.361-1.676.058-.111-3.236c-.011-.326-.089-.567-.233-.722-.137-.162-.342-.238-.612-.229-.146.005-.28.034-.403.087a.82.82 0 0 0-.306.209.928.928 0 0 0-.247.675l.112 3.278-1.675.057-.112-3.246c-.01-.313-.092-.549-.243-.711-.144-.162-.345-.238-.602-.229a1.07 1.07 0 0 0-.393.086.824.824 0 0 0-.305.209.949.949 0 0 0-.188.298.949.949 0 0 0-.06.377l.113 3.278-1.686.058Zm13.343-.354a2.46 2.46 0 0 1-.721-.08 2.873 2.873 0 0 1-.624-.249 1.942 1.942 0 0 1-.482-.39 1.167 1.167 0 0 1-.245-.471l.36-.137-.051 1.262-1.561.054-.263-7.68 1.686-.058.118 3.466-.347-.103c.036-.175.11-.341.223-.497.112-.157.253-.297.423-.421.176-.131.37-.235.583-.312.213-.077.433-.119.662-.127.479-.016.906.094 1.283.331.383.237.69.57.92 1 .229.423.354.911.373 1.466.019.555-.072 1.052-.272 1.489a2.55 2.55 0 0 1-.829 1.05 2.218 2.218 0 0 1-1.236.407Zm-.485-1.39c.25-.009.463-.075.639-.199.183-.131.323-.306.42-.525.096-.226.139-.484.129-.775a1.754 1.754 0 0 0-.182-.765 1.15 1.15 0 0 0-1.106-.66c-.25.008-.467.078-.65.21a1.166 1.166 0 0 0-.419.525 1.75 1.75 0 0 0-.13.775c.01.291.071.546.183.765.111.211.263.376.454.495.192.111.412.162.662.154Zm4.011 1.164-.264-7.7 1.675-.057.265 7.7-1.676.057Zm5.695-.091c-.61.021-1.148-.082-1.615-.309a2.648 2.648 0 0 1-1.085-.963 2.934 2.934 0 0 1-.415-1.455c-.014-.43.042-.824.168-1.183.127-.365.31-.681.551-.946.248-.265.54-.473.875-.624a2.909 2.909 0 0 1 1.126-.257 2.64 2.64 0 0 1 1.069.172c.324.127.608.312.852.554.245.241.435.53.572.866.136.335.208.704.215 1.107l.005.458-4.391.151-.282-.938 3.278-.113-.171.193-.007-.208a.81.81 0 0 0-.182-.441.937.937 0 0 0-.375-.3 1.056 1.056 0 0 0-.503-.097 1.405 1.405 0 0 0-.702.19 1.012 1.012 0 0 0-.411.473c-.09.204-.13.456-.12.754.01.298.082.56.215.785.139.224.333.394.58.511.254.116.551.169.891.157.229-.008.435-.05.62-.126.185-.075.382-.2.592-.374l.818 1.076a3.72 3.72 0 0 1-.671.482 3.307 3.307 0 0 1-.74.285c-.248.071-.5.111-.757.12ZM11.245 17.886c.724-.182 1.36-.091 1.907.273.553.355.933.943 1.14 1.763l.674 2.669a.971.971 0 0 1-1.883.475l-.61-2.415c-.104-.413-.292-.707-.564-.882-.272-.175-.589-.217-.95-.125-.362.09-.622.278-.778.56-.156.284-.182.632-.078 1.046l.608 2.409a.977.977 0 0 1-1.894.478L7.735 19.85a.977.977 0 0 1 .708-1.186l.75-.19a.203.203 0 0 1 .247.148c.048.192.354.224.481.072a2.494 2.494 0 0 1 1.324-.807ZM15.312 18.474c-.16-.635-.183-1.222-.067-1.762.122-.541.357-.993.706-1.356a2.639 2.639 0 0 1 1.287-.737c.435-.11.838-.117 1.207-.022.127.03.246.07.358.119.184.079.46-.102.41-.296a.199.199 0 0 1 .145-.242l.754-.19a.977.977 0 0 1 1.186.708l1.082 4.286a.977.977 0 0 1-.708 1.186l-.75.19a.205.205 0 0 1-.247-.15c-.05-.197-.377-.226-.504-.066a2.39 2.39 0 0 1-.266.284c-.28.259-.639.443-1.074.553a2.62 2.62 0 0 1-1.471-.04 2.893 2.893 0 0 1-1.269-.87c-.359-.428-.619-.96-.779-1.595Zm4.633-1.157c-.12-.473-.346-.812-.681-1.018a1.3 1.3 0 0 0-1.056-.17 1.336 1.336 0 0 0-.86.653c-.192.331-.228.733-.109 1.206.12.472.344.816.673 1.032.335.206.69.261 1.067.166a1.3 1.3 0 0 0 .85-.65c.196-.34.235-.747.116-1.22ZM27.585 12.102a.977.977 0 0 1 1.186.708l1.082 4.286a.977.977 0 0 1-.708 1.186l-.745.188a.209.209 0 0 1-.253-.151c-.05-.197-.364-.23-.493-.072-.084.103-.18.201-.287.296a2.468 2.468 0 0 1-1.024.517c-.473.12-.916.121-1.33.006a2.232 2.232 0 0 1-1.074-.707c-.3-.349-.518-.792-.654-1.331l-.674-2.67a.97.97 0 1 1 1.883-.475l.61 2.415c.104.413.292.708.564.882.272.175.589.217.95.126.37-.094.633-.282.79-.565.155-.282.181-.63.077-1.044l-.608-2.41a.977.977 0 0 1 .708-1.185ZM34.262 14.21a.525.525 0 0 1-.38.639.525.525 0 0 0-.382.638l.795 3.15a.977.977 0 1 1-1.894.479l-.837-3.317a.354.354 0 0 0-.43-.257.354.354 0 0 1-.43-.257l-.223-.886a.354.354 0 0 1 .256-.43l.167-.042a.183.183 0 0 0 .132-.222c-.192-.76-.12-1.391.217-1.893.335-.508.924-.869 1.766-1.081a.323.323 0 0 1 .391.243l.126.498c.109.432-.265.782-.524 1.146-.116.162-.133.406-.051.731.008.03.039.05.07.041l.453-.114c.282-.071.567.1.638.38l.14.555ZM35.284 16.097c-.16-.635-.183-1.222-.067-1.762.122-.542.358-.994.706-1.356a2.64 2.64 0 0 1 1.287-.737c.435-.11.838-.118 1.207-.023a2.3 2.3 0 0 1 .358.12c.184.079.46-.102.41-.297a.2.2 0 0 1 .145-.241l.754-.19a.977.977 0 0 1 1.186.707l1.082 4.287a.977.977 0 0 1-.708 1.186l-.749.189a.205.205 0 0 1-.248-.148c-.05-.198-.377-.228-.504-.067a2.374 2.374 0 0 1-.266.283c-.28.26-.639.444-1.074.554a2.619 2.619 0 0 1-1.471-.041 2.892 2.892 0 0 1-1.269-.87c-.359-.428-.619-.96-.779-1.594Zm4.633-1.157c-.12-.473-.346-.812-.681-1.018a1.3 1.3 0 0 0-1.056-.17 1.336 1.336 0 0 0-.86.653c-.192.331-.228.733-.108 1.206.119.472.343.816.672 1.031.335.207.69.262 1.067.167a1.3 1.3 0 0 0 .85-.65c.196-.34.235-.747.116-1.22ZM42.84 8.77a.977.977 0 0 1 1.186.709l1.59 6.302a.977.977 0 0 1-1.894.478l-1.59-6.302a.977.977 0 0 1 .708-1.186Z"/><path fill="#fff" d="M14.219 27.617a.526.526 0 0 1-.381.638.525.525 0 0 0-.381.638l.795 3.151a.977.977 0 0 1-1.894.478l-.837-3.317a.354.354 0 0 0-.43-.257.354.354 0 0 1-.43-.257l-.223-.886a.354.354 0 0 1 .256-.43l.166-.042a.183.183 0 0 0 .133-.222c-.192-.76-.12-1.391.217-1.892.335-.509.924-.87 1.765-1.082a.323.323 0 0 1 .392.243l.125.498c.11.433-.265.783-.523 1.146-.116.163-.133.406-.051.731.007.03.038.05.069.042l.454-.115c.281-.07.567.1.638.381l.14.554ZM15.292 27.688c-.16-.635-.182-1.223-.067-1.762.122-.542.358-.994.706-1.357a2.64 2.64 0 0 1 1.287-.737c.435-.11.838-.117 1.208-.022.126.032.245.071.357.12.184.078.46-.102.41-.297a.199.199 0 0 1 .145-.241l.754-.19a.977.977 0 0 1 1.186.707l1.082 4.287a.977.977 0 0 1-.708 1.186l-.749.189a.205.205 0 0 1-.248-.149c-.05-.198-.377-.227-.504-.067a2.382 2.382 0 0 1-.266.284c-.28.26-.638.444-1.074.554a2.62 2.62 0 0 1-1.471-.041 2.892 2.892 0 0 1-1.268-.87c-.36-.428-.62-.96-.78-1.594Zm4.633-1.157c-.12-.473-.346-.813-.681-1.019a1.3 1.3 0 0 0-1.056-.17 1.336 1.336 0 0 0-.86.654c-.192.331-.228.733-.108 1.205.119.473.343.817.672 1.032.335.206.69.262 1.067.167a1.3 1.3 0 0 0 .85-.65c.196-.34.235-.747.116-1.22ZM26.333 26.492a.697.697 0 0 1 .846.505l.032.128a.828.828 0 0 1-.6 1.005l-.16.04c-.688.174-1.265.143-1.733-.092-.47-.243-.8-.745-.992-1.505L23.2 24.49a.389.389 0 0 0-.471-.281.388.388 0 0 1-.472-.282l-.207-.82a.388.388 0 0 1 .282-.471.388.388 0 0 0 .281-.472l-.095-.376a.777.777 0 0 1 .563-.943l.388-.098a.777.777 0 0 1 .943.563l.034.133a.64.64 0 0 0 .777.463.64.64 0 0 1 .777.464l.083.332a.64.64 0 0 1-.463.777.64.64 0 0 0-.464.777l.47 1.86c.046.186.124.307.233.366.11.059.267.062.474.01ZM30.692 20.456c.708-.18 1.337-.086 1.884.278.546.357.922.946 1.129 1.765l.673 2.67a.97.97 0 1 1-1.883.475l-.609-2.415c-.104-.413-.292-.707-.564-.882-.272-.175-.589-.217-.95-.126-.363.092-.622.279-.778.562-.157.283-.183.63-.078 1.044l.608 2.41a.977.977 0 0 1-1.894.478l-1.59-6.303a.977.977 0 0 1 .707-1.186l.263-.066a.705.705 0 0 1 .857.511l.285 1.13c.08.318.63.393.882.18a2.592 2.592 0 0 1 1.058-.525ZM39.788 20.399a.977.977 0 0 1 1.186.708l1.081 4.286a.977.977 0 0 1-.708 1.186l-.745.188a.209.209 0 0 1-.253-.15c-.05-.198-.364-.231-.492-.073-.085.103-.18.202-.288.296a2.467 2.467 0 0 1-1.024.517c-.473.12-.916.121-1.33.006a2.23 2.23 0 0 1-1.074-.707c-.3-.348-.517-.792-.654-1.331l-.673-2.67a.971.971 0 0 1 1.883-.475l.61 2.415c.103.413.292.708.563.883.272.174.59.216.951.125.37-.093.632-.281.788-.564.157-.283.183-.632.078-1.045l-.607-2.41a.977.977 0 0 1 .708-1.185ZM44.049 19.575c.059.235.433.265.579.071a2.444 2.444 0 0 1 .37-.396c.433-.374 1.026-.018 1.166.535l.121.482a.537.537 0 0 1-.389.652c-.473.12-.8.312-.985.579-.186.259-.215.643-.086 1.152l.485 1.922a.977.977 0 1 1-1.894.478l-1.082-4.286a.977.977 0 0 1 .708-1.186l.711-.18a.243.243 0 0 1 .296.177ZM33.005 29.262c-5.198 3.172-8.671 3.868-15.12 2.647-.489-.092-.402-.804.095-.806 5.554-.012 9.615-.742 14.653-2.568.466-.168.795.469.372.727Z"/><path fill="#FEC703" d="M33.374 29.194c-5.478 3.343-9.137 4.076-15.932 2.79-.515-.098-.424-.848.1-.85 5.853-.013 10.132-.782 15.44-2.705.49-.178.838.494.392.765Z"/><path fill="#fff" d="M47.556 17.195a.65.65 0 0 1-.358-.104.775.775 0 0 1-.254-.286.99.99 0 0 1-.09-.436c0-.135.025-.267.077-.397a1.538 1.538 0 0 1 .566-.683c.135-.087.28-.152.436-.196l.3.371c-.182.078-.33.174-.443.287-.108.112-.162.21-.162.292 0 .048.015.096.045.144a.79.79 0 0 0 .137.13.714.714 0 0 1 .215.215c.043.069.065.145.065.227 0 .135-.05.241-.15.32a.604.604 0 0 1-.384.116Zm2.202 2.87c-.33 0-.625-.052-.885-.156a1.598 1.598 0 0 1-.625-.443l.638-.546a1.3 1.3 0 0 0 .455.3c.17.06.33.09.482.09a.521.521 0 0 0 .15-.02.374.374 0 0 0 .11-.051.284.284 0 0 0 .078-.085.259.259 0 0 0 .026-.117.212.212 0 0 0-.11-.195 2.997 2.997 0 0 0-.54-.182 2.823 2.823 0 0 1-.534-.19 1.384 1.384 0 0 1-.364-.253.932.932 0 0 1-.202-.3 1.044 1.044 0 0 1-.065-.377c0-.212.063-.399.188-.56.13-.16.3-.284.508-.37a1.67 1.67 0 0 1 .677-.137 2.167 2.167 0 0 1 1.022.247c.151.078.286.172.403.28l-.553.618a1.203 1.203 0 0 0-.26-.195c-.1-.06-.2-.108-.3-.143a.727.727 0 0 0-.456-.04.288.288 0 0 0-.123.053.226.226 0 0 0-.072.085.205.205 0 0 0-.026.104c0 .047.011.09.033.13.026.034.06.067.104.097.04.022.106.05.202.085.1.035.23.074.39.117.204.056.378.122.52.195.148.07.265.152.352.248.074.073.126.16.156.26.035.095.053.2.053.312a.983.983 0 0 1-.19.592c-.12.17-.29.304-.507.404a1.778 1.778 0 0 1-.735.143Z"/></svg>