{
  "accessors": [
    {
      "bufferView": 2,
      "componentType": 5126,
      "count": 65532,
      "max": [
        472.2059631347656,
        243.3069305419922,
        7.795348644256592
      ],
      "min": [
        432.3314514160156,
        203.43270874023438,
        -0.046925246715545654
      ],
      "type": "VEC3"
    },
    {
      "bufferView": 2,
      "byteOffset": 786384,
      "componentType": 5126,
      "count": 65532,
      "max": [
        0.9997814893722534,
        0.9998179078102112,
        0.9999896287918091
      ],
      "min": [
        -0.9991259574890137,
        -0.9996619820594788,
        -0.9960318207740784
      ],
      "type": "VEC3"
    },
    {
      "bufferView": 1,
      "componentType": 5126,
      "count": 65532,
      "max": [
        0.9999287724494934,
        0.9914541840553284
      ],
      "min": [
        0.0,
        0.0
      ],
      "type": "VEC2"
    },
    {
      "bufferView": 0,
      "componentType": 5125,
      "count": 138990,
      "type": "SCALAR"
    },
    {
      "bufferView": 2,
      "byteOffset": 1572768,
      "componentType": 5126,
      "count": 28758,
      "max": [
        472.09259033203125,
        243.19000244140625,
        7.795348644256592
      ],
      "min": [
        432.41693115234375,
        205.17117309570313,
        -0.046925246715545654
      ],
      "type": "VEC3"
    },
    {
      "bufferView": 2,
      "byteOffset": 1917864,
      "componentType": 5126,
      "count": 28758,
      "max": [
        0.9997120499610901,
        0.9994058012962341,
        0.9999120235443115
      ],
      "min": [
        -0.9984516501426697,
        -0.9993913173675537,
        -0.939363956451416
      ],
      "type": "VEC3"
    },
    {
      "bufferView": 1,
      "byteOffset": 524256,
      "componentType": 5126,
      "count": 28758,
      "max": [
        0.9999287724494934,
        0.9321321845054626
      ],
      "min": [
        0.0,
        0.6101694703102112
      ],
      "type": "VEC2"
    },
    {
      "bufferView": 0,
      "byteOffset": 555960,
      "componentType": 5125,
      "count": 61146,
      "type": "SCALAR"
    }
  ],
  "asset": {
    "extras": {
      "author": "jkcalvin (https://sketchfab.com/jkcalvin)",
      "license": "CC-BY-4.0 (http://creativecommons.org/licenses/by/4.0/)",
      "source": "https://sketchfab.com/3d-models/just-rice-3-70da0ea120ce430baaa5e8c99fb77171",
      "title": "just rice 3"
    },
    "generator": "Sketchfab-12.68.0",
    "version": "2.0"
  },
  "bufferViews": [
    {
      "buffer": 0,
      "byteLength": 800544,
      "name": "floatBufferViews",
      "target": 34963
    },
    {
      "buffer": 0,
      "byteLength": 754320,
      "byteOffset": 800544,
      "byteStride": 8,
      "name": "floatBufferViews",
      "target": 34962
    },
    {
      "buffer": 0,
      "byteLength": 2262960,
      "byteOffset": 1554864,
      "byteStride": 12,
      "name": "floatBufferViews",
      "target": 34962
    }
  ],
  "buffers": [
    {
      "byteLength": 3817824,
      "uri": "scene.bin"
    }
  ],
  "materials": [
    {
      "doubleSided": true,
      "name": "diffuse_White",
      "pbrMetallicRoughness": {
        "metallicFactor": 0.0
      }
    }
  ],
  "meshes": [
    {
      "name": "Object_0",
      "primitives": [
        {
          "attributes": {
            "NORMAL": 1,
            "POSITION": 0,
            "TEXCOORD_0": 2
          },
          "indices": 3,
          "material": 0,
          "mode": 4
        }
      ]
    },
    {
      "name": "Object_1",
      "primitives": [
        {
          "attributes": {
            "NORMAL": 5,
            "POSITION": 4,
            "TEXCOORD_0": 6
          },
          "indices": 7,
          "material": 0,
          "mode": 4
        }
      ]
    }
  ],
  "nodes": [
    {
      "children": [
        1
      ],
      "matrix": [
        1.0,
        0.0,
        0.0,
        0.0,
        0.0,
        2.220446049250313e-16,
        -1.0,
        0.0,
        0.0,
        1.0,
        2.220446049250313e-16,
        0.0,
        0.0,
        0.0,
        0.0,
        1.0
      ],
      "name": "Sketchfab_model"
    },
    {
      "children": [
        2,
        3
      ],
      "name": "cookiecutter1.obj.cleaner.materialmerger.gles"
    },
    {
      "mesh": 0,
      "name": "Object_2"
    },
    {
      "mesh": 1,
      "name": "Object_3"
    }
  ],
  "scene": 0,
  "scenes": [
    {
      "name": "Sketchfab_Scene",
      "nodes": [
        0
      ]
    }
  ]
}
